<?xml version="1.0" encoding="UTF-8" standalone="no"?>
<svg
   xmlns:dc="http://purl.org/dc/elements/1.1/"
   xmlns:cc="http://creativecommons.org/ns#"
   xmlns:rdf="http://www.w3.org/1999/02/22-rdf-syntax-ns#"
   xmlns:svg="http://www.w3.org/2000/svg"
   xmlns="http://www.w3.org/2000/svg"
   id="svg8"
   version="1.1"
   viewBox="0 0 3.7041666 3.7041668"
   height="14"
   width="14">
  <defs
     id="defs2" />
  <metadata
     id="metadata5">
    <rdf:RDF>
      <cc:Work
         rdf:about="">
        <dc:format>image/svg+xml</dc:format>
        <dc:type
           rdf:resource="http://purl.org/dc/dcmitype/StillImage" />
        <dc:title></dc:title>
      </cc:Work>
    </rdf:RDF>
  </metadata>
  <g
     transform="translate(0,-293.29582)"
     id="layer1">
    <path
       d="m 1.7245364,295.27649 c 0.077531,0 0.038251,0.10451 0,0.12886 -0.103658,0.066 -0.2259436,-0.029 -0.2577233,-0.12886 -0.056847,-0.17859 0.087432,-0.35045 0.2577233,-0.38659 0.2499097,-0.053 0.4771726,0.14611 0.5154467,0.38659 0.051013,0.32053 -0.2047955,0.60475 -0.5154467,0.64431 -0.3909227,0.0498 -0.73276313,-0.26349 -0.77316998,-0.64431 -0.0489381,-0.46123 0.32216358,-0.86102 0.77316998,-0.90203 0.5314954,-0.0483 0.9894182,0.38084 1.0308933,0.90203 0.047885,0.60174 -0.4395121,1.11792 -1.0308932,1.15975 -0.6719649,0.0475 -1.24649971,-0.49818 -1.28861674,-1.15975 -0.0472489,-0.74218 0.55685203,-1.37513 1.28861664,-1.41748 0.8123973,-0.047 1.5037948,0.61552 1.54634,1.41748"
       id="path826"
       style="fill:none;fill-rule:evenodd;stroke:#000000;stroke-width:0.15000001;stroke-miterlimit:4;stroke-dasharray:none;stroke-opacity:1" />
  </g>
</svg>
